<svg id="レイヤー_1" data-name="レイヤー 1" xmlns="http://www.w3.org/2000/svg" viewBox="0 0 258.61 255.14"><defs><style>.cls-1{fill:#fad9e1;}.cls-2{fill:#d16f89;}</style></defs><title>notext</title><path class="cls-1" d="M83.56,61.76C75.24,12.41,95.41,5.32,95.41,5.32l20.84,21.49,13-26.74s23.72.37,28.4,50.2c3.38,36-28.64,61.1-28.64,61.1S90.07,100.42,83.56,61.76Z"/><path class="cls-1" d="M50.1,154.35C.6,147,.09,125.64.09,125.64L27,112.45,5.55,91.83s7.68-22.44,56.51-11.49c35.33,7.92,49.27,46.11,49.27,46.11S88.88,160.1,50.1,154.35Z"/><path class="cls-1" d="M130,215.82c-22.28,44.81-42.76,38.7-42.76,38.7L83,224.88l-26.23,14s-19-14.23,6.53-57.3c18.45-31.15,59.08-32.6,59.08-32.6S147.41,180.72,130,215.82Z"/><path class="cls-1" d="M213.31,158.14c35.74,35,23.59,52.62,23.59,52.62l-29.5-5.13,5.21,29.27s-19.4,13.65-52.48-23.92c-23.93-27.17-12.75-66.26-12.75-66.26S185.32,130.7,213.31,158.14Z"/><path class="cls-1" d="M183.2,63.35c44.37-23.16,57.34-6.17,57.34-6.17l-14,26.47L256,87.74s7,22.67-39,42.52c-33.23,14.36-67-8.35-67-8.35S148.46,81.49,183.2,63.35Z"/><path class="cls-2" d="M207.4,205.63s-46.53-42.88-64.7-82.9c-17.34-38.19-26.45-95.92-26.45-95.92L95.41,5.32S75.24,12.41,83.56,61.76C86.8,81,111,127.81,111,127.81c-12.13,9.5-34.75,31.81-47.75,53.76-25.5,43.07-6.53,57.3-6.53,57.3l26.23-14,42.8-71A192.89,192.89,0,0,0,160.13,211c33.08,37.57,52.48,23.92,52.48,23.92Z"/></svg>