<svg id="レイヤー_1" data-name="レイヤー 1" xmlns="http://www.w3.org/2000/svg" viewBox="0 0 256 256"><defs><style>.cls-1{fill:#fad9e1;}.cls-2{fill:#d16f89;}</style></defs><title>notext</title><path class="cls-1" d="M83.26,62.47C75,13.29,95.06,6.23,95.06,6.23l20.77,21.41L128.78,1s23.63.36,28.29,50c3.37,35.92-28.53,60.89-28.53,60.89S89.75,101,83.26,62.47Z"/><path class="cls-1" d="M49.92,154.71C.59,147.4.09,126.11.09,126.11L26.87,113,5.53,92.42S13.18,70.07,61.84,81c35.2,7.89,49.08,46,49.08,46S88.55,160.44,49.92,154.71Z"/><path class="cls-1" d="M129.49,216c-22.2,44.65-42.6,38.56-42.6,38.56L82.67,225,56.53,238.93S37.63,224.75,63,181.84c18.38-31,58.87-32.48,58.87-32.48S146.87,181,129.49,216Z"/><path class="cls-1" d="M212.53,158.49C248.14,193.4,236,210.92,236,210.92l-29.39-5.11L211.83,235s-19.33,13.59-52.28-23.84c-23.84-27.07-12.71-66-12.71-66S184.64,131.15,212.53,158.49Z"/><path class="cls-1" d="M182.54,64.05c44.2-23.08,57.12-6.15,57.12-6.15L225.72,84.27l29.34,4.08s7,22.59-38.82,42.36c-33.12,14.31-66.72-8.32-66.72-8.32S147.91,82.12,182.54,64.05Z"/><path class="cls-2" d="M206.65,205.81s-46.37-42.73-64.47-82.6c-17.28-38-26.35-95.57-26.35-95.57L95.06,6.23S75,13.29,83.26,62.47c3.22,19.14,27.35,65.8,27.35,65.8C98.52,137.74,76,160,63,181.84c-25.41,42.91-6.51,57.09-6.51,57.09L82.67,225l42.64-70.79a192.32,192.32,0,0,0,34.24,56.94C192.5,248.57,211.83,235,211.83,235Z"/></svg>