<svg id="レイヤー_1" data-name="レイヤー 1" xmlns="http://www.w3.org/2000/svg" viewBox="0 0 512 512"><defs><style>.cls-1{fill:#fad9e1;}.cls-2{fill:#d16f89;}.cls-3{fill:#767c53;}</style></defs><title>square</title><path class="cls-1" d="M190.39,91.31c-12.31-73,17.53-83.54,17.53-83.54l30.86,31.81L258,0s35.09.54,42,74.29c5,53.35-42.38,90.44-42.38,90.44S200,148.51,190.39,91.31Z"/><path class="cls-1" d="M140.88,228.33c-73.28-10.86-74-42.48-74-42.48l39.78-19.52L74.94,135.81s11.36-33.22,83.64-17c52.28,11.72,72.91,68.26,72.91,68.26S198.26,236.84,140.88,228.33Z"/><path class="cls-1" d="M259.07,319.31c-33,66.33-63.28,57.27-63.28,57.27l-6.27-43.86-38.83,20.71s-28.08-21.07,9.67-84.8c27.3-46.11,87.44-48.26,87.44-48.26S284.89,267.36,259.07,319.31Z"/><path class="cls-1" d="M382.42,233.94c52.9,51.86,34.92,77.88,34.92,77.88l-43.66-7.59,7.7,43.33s-28.71,20.19-77.66-35.4c-35.41-40.22-18.87-98.08-18.87-98.08S341,193.33,382.42,233.94Z"/><path class="cls-1" d="M337.87,93.66c65.66-34.28,84.86-9.14,84.86-9.14L402,123.69l43.59,6.07s10.33,33.54-57.67,62.92c-49.19,21.25-99.11-12.36-99.11-12.36S286.44,120.5,337.87,93.66Z"/><path class="cls-2" d="M373.68,304.23s-68.87-63.47-95.77-122.7C252.25,125,238.78,39.58,238.78,39.58L207.92,7.77s-29.84,10.49-17.53,83.54c4.79,28.43,40.64,97.74,40.64,97.74-18,14.07-51.43,47.09-70.67,79.58-37.75,63.73-9.67,84.8-9.67,84.8l38.83-20.71,63.34-105.14s15.45,44.36,50.86,84.58c48.95,55.59,77.66,35.4,77.66,35.4Z"/><path class="cls-3" d="M.06,409.79H16.78v32.08H47.6V409.79H64.33v80.88H47.6V455.73H16.78v34.94H.06Z"/><path class="cls-3" d="M110.79,490.67a28.57,28.57,0,0,1-1.72-8.13c-2.4,5.61-8,10-16.84,10-11.8,0-18.67-7.67-18.67-18.33,0-11.8,8.82-16.49,21.88-18.44l12.72-2V451.6c0-6.76-3.67-8.24-8.83-8.24a22.26,22.26,0,0,0-16.72,7.33l-7.45-10.31c4.7-4.59,13.52-8.94,26.12-8.94,16,0,22.57,6.87,22.57,21.31v21.54c0,8.71.23,11.68,2.18,16.38Zm-2.63-27-10,1.84c-6.88,1.26-9.74,3.66-9.74,8.13a7.39,7.39,0,0,0,7.79,7.79c6.53,0,11.92-5.38,11.92-14Z"/><path class="cls-3" d="M142.24,473.37a24.68,24.68,0,0,0,17.3,7.68c4.12,0,8.48-1.61,8.48-5.62,0-10.65-31.05-4.69-31.05-26,0-12.49,11.23-18,23-18,9.62,0,16.95,2.52,22.8,7l-7.22,10.31c-3.1-3-10-6-16.16-6-3.55,0-6.64,1.38-6.64,4.93,0,9.74,30.93,5.38,30.93,25.78,0,12.83-12,19-23.48,19-10.32,0-19-3-25.32-8.59Z"/><path class="cls-3" d="M194.14,409.79h15.58v46.63l21.65-23.26h19.14l-22.69,21.77,23.72,35.74H233.66L218,464.55l-8.25,7.91v18.21H194.14Z"/><path class="cls-3" d="M269,465.58c1.14,10.66,6.53,15.24,14,15.24,5.62,0,9.63-2.52,12.49-7.68l11.57,6.53c-5.27,8.37-14,12.83-24.86,12.83-19,0-29.1-13.29-29.1-30.36,0-17.3,10.2-30.7,28.18-30.7,17.42,0,26.81,12.83,26.81,30.82,0,1.95-.11,2.86-.11,3.32Zm0-8.93h23.25c0-7.22-3.43-13.75-11.34-13.75C273.83,442.9,269.93,448.05,269,456.65Z"/><path class="cls-3" d="M318.05,409.79h15.58v80.88H318.05Z"/><path class="cls-3" d="M345.49,409.79h15.59v80.88H345.49Z"/><path class="cls-2" d="M378.42,449.66h32.2v13.52h-32.2Z"/><path class="cls-2" d="M418.28,499.15a21.17,21.17,0,0,0,6.07.92c3.79,0,5.5-1.95,5.5-6.76V433.16h15.59v61.18c0,11.34-4.7,17.41-17.65,17.41a27.26,27.26,0,0,1-10.65-1.83Zm11.57-88.68h15.59v12.72H429.85Z"/><path class="cls-2" d="M457.92,433.16h15.47V442a17.72,17.72,0,0,1,16.84-10.54c13.64,0,21.77,11.23,21.77,30,0,22.45-11.69,30.59-22.91,30.59-6.76,0-13.06-3.1-15.58-8.14v26.7H457.92Zm15.47,29.9c0,9.05,3.9,16.61,11.34,16.61,7,0,11-6.64,11-17.64,0-10.54-3.55-17.76-11.34-17.76s-11,7.79-11,16.27Z"/></svg>